<svg xmlns="http://www.w3.org/2000/svg" width="16" height="14" fill="none" viewBox="0 0 16 14"><g clip-path="url(#a)"><path fill="#fff" d="M6.5.5v3h-6v10h13v-3h2v-8l-2-2z"/><path fill="url(#b)" d="M0 4a1 1 0 0 1 1-1h5v1H1.5a.5.5 0 0 0-.5.5V6H0z"/><path fill="url(#c)" d="M2 9.5V14h10V8.25a.25.25 0 0 0-.25-.25H6.207a.5.5 0 0 0-.353.146l-.708.708A.5.5 0 0 1 4.793 9H2.5a.5.5 0 0 0-.5.5"/><path fill="url(#d)" d="M2 5.25V7.5h2.5l1-1H6V5H2.25a.25.25 0 0 0-.25.25"/><path fill="url(#e)" d="M13.293 0A1 1 0 0 1 14 .293L15.707 2a1 1 0 0 1 .293.707v7.543a.75.75 0 0 1-.75.75H14v-1h.5a.5.5 0 0 0 .5-.5V3l-2-2H7.5a.5.5 0 0 0-.5.5V6H6V.75A.75.75 0 0 1 6.75 0z"/><path fill="url(#f)" d="M8 2.25V7h6V3.5L12.5 2H8.25a.25.25 0 0 0-.25.25"/><path fill="url(#g)" d="M0 13V6h1v6.5a.5.5 0 0 0 .5.5h11a.5.5 0 0 0 .5-.5v-5a.5.5 0 0 0-.5-.5H5.81a.25.25 0 0 0-.176.073L5 7.707A1 1 0 0 1 4.293 8H2.25A.25.25 0 0 1 2 7.75v-.5A.25.25 0 0 1 2.25 7h1.94a.25.25 0 0 0 .176-.073L5 6.293A1 1 0 0 1 5.707 6H13a1 1 0 0 1 1 1v6a1 1 0 0 1-1 1H1a1 1 0 0 1-1-1"/></g><defs><linearGradient id="b" x1="1.333" x2="36.865" y1="14" y2="18.08" gradientUnits="userSpaceOnUse"><stop stop-color="#ECAE56"/><stop offset=".55" stop-color="#DD8624"/></linearGradient><linearGradient id="c" x1=".8" x2="17.027" y1="3.5" y2="7.6" gradientUnits="userSpaceOnUse"><stop stop-color="#FBE794"/><stop offset="1" stop-color="#EDD143"/></linearGradient><linearGradient id="d" x1=".8" x2="17.331" y1="4.2" y2="7.68" gradientUnits="userSpaceOnUse"><stop stop-color="#FBE794"/><stop offset="1" stop-color="#EDD143"/></linearGradient><linearGradient id="e" x1=".8" x2="9.708" y1="1.273" y2="15.111" gradientUnits="userSpaceOnUse"><stop stop-color="#9CC9F5"/><stop offset="1" stop-color="#3160B7"/></linearGradient><linearGradient id="f" x1="0" x2="8.39" y1="0" y2="7.99" gradientUnits="userSpaceOnUse"><stop stop-color="#D3ECFF"/><stop offset="1" stop-color="#91C7F3"/></linearGradient><linearGradient id="g" x1=".5" x2="13.5" y1="7" y2="14" gradientUnits="userSpaceOnUse"><stop stop-color="#ECAE56"/><stop offset="1" stop-color="#DD8624"/></linearGradient><clipPath id="a"><path fill="#fff" d="M0 0h16v14H0z"/></clipPath></defs></svg>